{
  "extensionsUsed": [
    "KHR_materials_transmission",
    "KHR_materials_clearcoat",
    "KHR_materials_ior",
    "KHR_materials_specular",
    "KHR_materials_emissive_strength",
    "KHR_texture_transform"
  ],
  "accessors": [
    {
      "bufferView": 0,
      "componentType": 5126,
      "count": 3032,
      "type": "VEC3",
      "max": [
        4.999697E-10,
        0.013139923,
        0.0030495909
      ],
      "min": [
        -0.013118441,
        -0.013139923,
        -0.0030495909
      ]
    },
    {
      "bufferView": 1,
      "componentType": 5125,
      "count": 17490,
      "type": "SCALAR",
      "max": [
        3031.0
      ],
      "min": [
        0.0
      ]
    },
    {
      "bufferView": 2,
      "componentType": 5126,
      "count": 3032,
      "type": "VEC3",
      "max": [
        0.9992256,
        1.0,
        0.99999964
      ],
      "min": [
        -0.9989362,
        -1.0,
        -0.99999934
      ]
    },
    {
      "bufferView": 3,
      "componentType": 5126,
      "count": 3032,
      "type": "VEC2",
      "max": [
        0.15864676,
        -0.0
      ],
      "min": [
        0.0,
        -0.99853516
      ]
    },
    {
      "bufferView": 4,
      "componentType": 5126,
      "count": 4740,
      "type": "VEC3",
      "max": [
        0.0127035305,
        0.013139923,
        0.0030495909
      ],
      "min": [
        -4.9996973E-10,
        -0.013139923,
        -0.0030495909
      ]
    },
    {
      "bufferView": 5,
      "componentType": 5125,
      "count": 27714,
      "type": "SCALAR",
      "max": [
        4739.0
      ],
      "min": [
        0.0
      ]
    },
    {
      "bufferView": 6,
      "componentType": 5126,
      "count": 4740,
      "type": "VEC3",
      "max": [
        0.9999464,
        1.0,
        1.0
      ],
      "min": [
        -0.9999921,
        -1.0,
        -0.99999887
      ]
    },
    {
      "bufferView": 7,
      "componentType": 5126,
      "count": 4740,
      "type": "VEC2",
      "max": [
        0.319063,
        -0.0
      ],
      "min": [
        0.1601116,
        -0.99853516
      ]
    },
    {
      "bufferView": 8,
      "componentType": 5126,
      "count": 3281,
      "type": "VEC3",
      "max": [
        0.013122463,
        0.013139923,
        0.0030498146
      ],
      "min": [
        -4.9996973E-10,
        -0.013139923,
        -0.0030495909
      ]
    },
    {
      "bufferView": 9,
      "componentType": 5125,
      "count": 18936,
      "type": "SCALAR",
      "max": [
        3280.0
      ],
      "min": [
        0.0
      ]
    },
    {
      "bufferView": 10,
      "componentType": 5126,
      "count": 3281,
      "type": "VEC3",
      "max": [
        0.9990101,
        1.0,
        0.99999934
      ],
      "min": [
        -0.9999868,
        -1.0,
        -0.9999996
      ]
    },
    {
      "bufferView": 11,
      "componentType": 5126,
      "count": 3281,
      "type": "VEC2",
      "max": [
        0.15857327,
        -0.0
      ],
      "min": [
        0.0,
        -0.99853516
      ]
    },
    {
      "bufferView": 12,
      "componentType": 5126,
      "count": 4848,
      "type": "VEC3",
      "max": [
        4.999697E-10,
        0.013139923,
        0.0030495909
      ],
      "min": [
        -0.012703542,
        -0.013139923,
        -0.0030495909
      ]
    },
    {
      "bufferView": 13,
      "componentType": 5125,
      "count": 28362,
      "type": "SCALAR",
      "max": [
        4847.0
      ],
      "min": [
        0.0
      ]
    },
    {
      "bufferView": 14,
      "componentType": 5126,
      "count": 4848,
      "type": "VEC3",
      "max": [
        0.9999921,
        1.0,
        0.99999934
      ],
      "min": [
        -0.9999464,
        -1.0,
        -1.0
      ]
    },
    {
      "bufferView": 15,
      "componentType": 5126,
      "count": 4848,
      "type": "VEC2",
      "max": [
        0.31891587,
        -0.0
      ],
      "min": [
        0.16003811,
        -0.99853516
      ]
    }
  ],
  "asset": {
    "version": "2.0"
  },
  "buffers": [
    {
      "uri": "data:application/octet-stream;base64,",
      "byteLength": 36384
    },
    {
      "uri": "data:application/octet-stream;base64,",
      "byteLength": 69960
    },
    {
      "uri": "data:application/octet-stream;base64,",
      "byteLength": 36384
    },
    {
      "uri": "data:application/octet-stream;base64,",
      "byteLength": 24256
    },
    {
      "uri": "data:application/octet-stream;base64,",
      "byteLength": 56880
    },
    {
      "uri": "data:application/octet-stream;base64,",
      "byteLength": 110856
    },
    {
      "uri": "data:application/octet-stream;base64,",
      "byteLength": 56880
    },
    {
      "uri": "data:application/octet-stream;base64,",
      "byteLength": 37920
    },
    {
      "uri": "data:application/octet-stream;base64,",
      "byteLength": 39372
    },
    {
      "uri": "data:application/octet-stream;base64,",
      "byteLength": 75744
    },
    {
      "uri": "data:application/octet-stream;base64,",
      "byteLength": 39372
    },
    {
      "uri": "data:application/octet-stream;base64,",
      "byteLength": 26248
    },
    {
      "uri": "data:application/octet-stream;base64,",
      "byteLength": 58176
    },
    {
      "uri": "data:application/octet-stream;base64,",
      "byteLength": 113448
    },
    {
      "uri": "data:application/octet-stream;base64,",
      "byteLength": 58176
    },
    {
      "uri": "data:application/octet-stream;base64,",
      "byteLength": 38784
    }
  ],
  "bufferViews": [
    {
      "buffer": 0,
      "byteLength": 36384,
      "target": 34962
    },
    {
      "buffer": 1,
      "byteLength": 69960,
      "target": 34963
    },
    {
      "buffer": 2,
      "byteLength": 36384,
      "target": 34962
    },
    {
      "buffer": 3,
      "byteLength": 24256,
      "target": 34962
    },
    {
      "buffer": 4,
      "byteLength": 56880,
      "target": 34962
    },
    {
      "buffer": 5,
      "byteLength": 110856,
      "target": 34963
    },
    {
      "buffer": 6,
      "byteLength": 56880,
      "target": 34962
    },
    {
      "buffer": 7,
      "byteLength": 37920,
      "target": 34962
    },
    {
      "buffer": 8,
      "byteLength": 39372,
      "target": 34962
    },
    {
      "buffer": 9,
      "byteLength": 75744,
      "target": 34963
    },
    {
      "buffer": 10,
      "byteLength": 39372,
      "target": 34962
    },
    {
      "buffer": 11,
      "byteLength": 26248,
      "target": 34962
    },
    {
      "buffer": 12,
      "byteLength": 58176,
      "target": 34962
    },
    {
      "buffer": 13,
      "byteLength": 113448,
      "target": 34963
    },
    {
      "buffer": 14,
      "byteLength": 58176,
      "target": 34962
    },
    {
      "buffer": 15,
      "byteLength": 38784,
      "target": 34962
    }
  ],
  "materials": [
    {
      "name": "Yellow Gold 18K",
      "extensions": {
        "KHR_materials_transmission": {},
        "KHR_materials_clearcoat": {},
        "KHR_materials_ior": {
          "ior": 1.0
        },
        "KHR_materials_specular": {
          "specularFactor": 0.5,
          "specularColorFactor": [
            1.0,
            1.0,
            1.0
          ]
        }
      },
      "pbrMetallicRoughness": {
        "baseColorFactor": [
          0.8993845,
          0.63877946,
          0.28445208,
          1.0
        ],
        "roughnessFactor": 0.15
      }
    }
  ],
  "meshes": [
    {
      "primitives": [
        {
          "attributes": {
            "POSITION": 0,
            "NORMAL": 2,
            "TEXCOORD_0": 3
          },
          "indices": 1,
          "material": 0
        },
        {
          "attributes": {
            "POSITION": 4,
            "NORMAL": 6,
            "TEXCOORD_0": 7
          },
          "indices": 5,
          "material": 0
        }
      ]
    },
    {
      "primitives": [
        {
          "attributes": {
            "POSITION": 8,
            "NORMAL": 10,
            "TEXCOORD_0": 11
          },
          "indices": 9,
          "material": 0
        },
        {
          "attributes": {
            "POSITION": 12,
            "NORMAL": 14,
            "TEXCOORD_0": 15
          },
          "indices": 13,
          "material": 0
        }
      ]
    }
  ],
  "nodes": [
    {
      "mesh": 0
    },
    {
      "mesh": 1
    }
  ],
  "samplers": [
    {
      "magFilter": 9729,
      "minFilter": 9729
    }
  ],
  "scene": 0,
  "scenes": [
    {
      "nodes": [
        0,
        1
      ],
      "extensions": {}
    }
  ],
  "extensions": {}
}